<svg width="100%" height="100%" viewBox="0 0 482 133" version="1.1" xmlns="http://www.w3.org/2000/svg" xmlns:xlink="http://www.w3.org/1999/xlink" xml:space="preserve" xmlns:serif="http://www.serif.com/" style="fill-rule:evenodd;clip-rule:evenodd;stroke-linejoin:round;stroke-miterlimit:2;">
    <style>
        .background {
            fill: #282547;
        }
        [data-theme-mode="dark"] .background {
            fill: #221E44;
        }
    </style>
    <path class="background" d="M481.5,45c-0,-11.935 -4.741,-23.381 -13.18,-31.82c-8.439,-8.439 -19.885,-13.18 -31.82,-13.18l-391.5,0c-11.935,-0 -23.381,4.741 -31.82,13.18c-8.439,8.439 -13.18,19.885 -13.18,31.82l0,42.465c0,11.935 4.741,23.381 13.18,31.82c8.439,8.439 19.885,13.18 31.82,13.18l436.5,0l0,-87.465Z" style="fill:#282547;"/>
    <g>
        <path class="background" d="M481.5,45c-0,-11.935 -4.741,-23.381 -13.18,-31.82c-8.439,-8.439 -19.885,-13.18 -31.82,-13.18l-391.5,0c-11.935,-0 -23.381,4.741 -31.82,13.18c-8.439,8.439 -13.18,19.885 -13.18,31.82l0,42.465c0,11.935 4.741,23.381 13.18,31.82c8.439,8.439 19.885,13.18 31.82,13.18l436.5,0l0,-87.465Z" style="fill:#282547;"></path>
        <text style="fill: rgb(255, 255, 255); font-family: 'Felix Titling'; font-size: 28px; text-anchor: middle; white-space: pre; opacity: 0.95;" transform="matrix(5.016451835632324, 0, 0, 3.965598106384278, -506.79376220703125, -110.51876831054688)" x="128.75" y="54.637">M</text>
        <text style="fill: rgb(255, 255, 255); font-family: Calibri; font-size: 28.1376px; letter-spacing: 3px; line-height: 45.0201px; text-anchor: middle; white-space: pre; opacity: 0.95;" transform="matrix(2.710192918777466, 0, 0, 2.394819974899292, -115.9922866821289, -139.67724609375)" x="162.56" y="102.243">appie</text>
    </g>
</svg>
